<svg width="150" height="151" viewBox="0 0 150 151" fill="none" xmlns="http://www.w3.org/2000/svg">
<path d="M150 75.0388C150 33.6175 116.421 0.0388184 75 0.0388184C33.5786 0.0388184 0 33.6175 0 75.0388C0 116.46 33.5786 150.039 75 150.039C116.421 150.039 150 116.46 150 75.0388Z" fill="#0078EF"/>
<path d="M57.8572 48.146L52.4914 62.576C52.4314 62.7346 52.2086 62.7346 52.1486 62.576L46.8086 48.1503C46.6929 47.8375 46.3929 47.6275 46.0586 47.6275H42.0857C41.9272 47.6275 41.7986 47.756 41.7986 47.9146V67.166C41.7986 67.3246 41.9272 67.4532 42.0857 67.4532H44.9486C45.1072 67.4532 45.2357 67.3246 45.2357 67.166V53.5332C45.2357 53.3275 45.5186 53.2803 45.5914 53.4689L50.4686 66.9217C50.5843 67.2389 50.8843 67.4489 51.2229 67.4489H53.4814C53.82 67.4489 54.12 67.2346 54.2357 66.9175L59.0614 53.4775C59.13 53.2846 59.4172 53.336 59.4172 53.5375V67.1617C59.4172 67.3203 59.5457 67.4489 59.7043 67.4489H62.5372C62.6957 67.4489 62.8243 67.3203 62.8243 67.1617V47.9103C62.8243 47.7517 62.6957 47.6232 62.5372 47.6232H58.6157C58.2814 47.6232 57.9814 47.8332 57.8657 48.146H57.8572Z" fill="white"/>
<path d="M103.243 48.146L97.8771 62.576C97.8171 62.7346 97.5942 62.7346 97.5342 62.576L92.1942 48.1503C92.0785 47.8375 91.7785 47.6275 91.4442 47.6275H87.4714C87.3128 47.6275 87.1842 47.756 87.1842 47.9146V67.166C87.1842 67.3246 87.3128 67.4532 87.4714 67.4532H90.3342C90.4928 67.4532 90.6213 67.3246 90.6213 67.166V53.5332C90.6213 53.3275 90.9042 53.2803 90.9771 53.4689L95.8542 66.9217C95.9699 67.2389 96.2699 67.4489 96.6085 67.4489H98.8671C99.2056 67.4489 99.5056 67.2346 99.6213 66.9175L104.447 53.4775C104.516 53.2846 104.803 53.336 104.803 53.5375V67.1617C104.803 67.3203 104.931 67.4489 105.09 67.4489H107.923C108.081 67.4489 108.21 67.3203 108.21 67.1617V47.9103C108.21 47.7517 108.081 47.6232 107.923 47.6232H104.001C103.667 47.6232 103.367 47.8332 103.251 48.146H103.243Z" fill="white"/>
<path d="M104.777 80.9832C104.751 89.7989 100.492 97.8818 95.2244 102.596C95.0615 102.742 94.8001 102.592 94.8601 102.377C95.2458 100.942 95.1686 98.9446 95.1686 98.9446C95.1686 93.3003 90.6772 88.5475 85.1529 88.3503C82.3758 88.2518 79.7358 89.2332 77.7044 91.1189C75.5358 93.1375 74.3829 96.0218 74.3829 98.9832V104.323C74.3829 105.039 74.3144 105.707 74.1901 106.32C73.6929 108.737 71.3101 110.285 68.8844 109.83C55.4829 107.019 45.3686 95.1689 45.2358 80.9789C45.2358 80.8203 45.1072 80.696 44.9529 80.696H42.0986C41.9401 80.696 41.8072 80.8289 41.8115 80.9875C41.9701 99.1589 56.7986 113.897 75.0086 113.897C93.2186 113.897 108.051 99.1632 108.206 80.9875C108.206 80.8289 108.077 80.696 107.919 80.696H105.064C104.906 80.696 104.781 80.8246 104.781 80.9789L104.777 80.9832ZM91.7444 98.9489V100.929C91.7444 103.149 90.7544 105.249 89.0444 106.659L88.9029 106.775C88.3501 107.233 87.7372 107.61 87.0815 107.906C86.5844 108.129 86.0786 108.339 85.5686 108.532C85.4058 108.592 85.2601 108.42 85.3372 108.266C86.0829 106.77 86.4944 105.095 86.4944 103.346V92.5846C86.4944 92.2889 86.7901 92.0789 87.0644 92.1818C89.7729 93.1675 91.7444 95.8589 91.7444 98.9489ZM77.8115 105.669V98.906C77.8115 97.1789 78.3815 95.4775 79.5172 94.1746C80.3444 93.2275 81.3644 92.5503 82.4958 92.1603C82.7744 92.066 83.0615 92.2718 83.0615 92.5632V103.346C83.0615 106.346 81.5358 109.037 79.1615 109.98C77.5115 110.636 75.8701 110.636 75.0258 110.576C74.8544 110.563 74.8072 110.34 74.9572 110.255C76.3758 109.483 77.8115 108.017 77.8115 105.669Z" fill="white"/>
</svg>
