<svg width="150" height="151" viewBox="0 0 150 151" fill="none" xmlns="http://www.w3.org/2000/svg">
<path d="M150 75.3818C150 33.9605 116.421 0.381836 75 0.381836C33.5786 0.381836 0 33.9605 0 75.3818C0 116.803 33.5786 150.382 75 150.382C116.421 150.382 150 116.803 150 75.3818Z" fill="#9EDEF5"/>
<path d="M41.7895 112.681C41.7896 94.3397 56.6584 79.4709 75 79.4709C93.3416 79.4709 108.21 94.3397 108.21 112.681" stroke="#0078EF" stroke-width="3"/>
<path d="M57.8572 48.4887L52.4914 62.9187C52.4314 63.0773 52.2086 63.0773 52.1486 62.9187L46.8086 48.493C46.6929 48.1802 46.3929 47.9702 46.0586 47.9702H42.0857C41.9272 47.9702 41.7986 48.0987 41.7986 48.2573V67.5087C41.7986 67.6673 41.9272 67.7959 42.0857 67.7959H44.9486C45.1072 67.7959 45.2357 67.6673 45.2357 67.5087V53.8759C45.2357 53.6702 45.5186 53.623 45.5914 53.8116L50.4686 67.2645C50.5843 67.5816 50.8843 67.7916 51.2229 67.7916H53.4814C53.82 67.7916 54.12 67.5773 54.2357 67.2602L59.0614 53.8202C59.13 53.6273 59.4172 53.6787 59.4172 53.8802V67.5045C59.4172 67.663 59.5457 67.7916 59.7043 67.7916H62.5372C62.6957 67.7916 62.8243 67.663 62.8243 67.5045V48.253C62.8243 48.0945 62.6957 47.9659 62.5372 47.9659H58.6157C58.2814 47.9659 57.9814 48.1759 57.8657 48.4887H57.8572Z" fill="#0078EF"/>
<path d="M103.243 48.4887L97.8777 62.9187C97.8177 63.0773 97.5948 63.0773 97.5348 62.9187L92.1948 48.493C92.0791 48.1802 91.7791 47.9702 91.4448 47.9702H87.472C87.3134 47.9702 87.1848 48.0987 87.1848 48.2573V67.5087C87.1848 67.6673 87.3134 67.7959 87.472 67.7959H90.3348C90.4934 67.7959 90.622 67.6673 90.622 67.5087V53.8759C90.622 53.6702 90.9048 53.623 90.9777 53.8116L95.8548 67.2645C95.9705 67.5816 96.2705 67.7916 96.6091 67.7916H98.8677C99.2062 67.7916 99.5062 67.5773 99.622 67.2602L104.448 53.8202C104.516 53.6273 104.803 53.6787 104.803 53.8802V67.5045C104.803 67.663 104.932 67.7916 105.091 67.7916H107.923C108.082 67.7916 108.211 67.663 108.211 67.5045V48.253C108.211 48.0945 108.082 47.9659 107.923 47.9659H104.002C103.668 47.9659 103.368 48.1759 103.252 48.4887H103.243Z" fill="#0078EF"/>
</svg>
