<svg width="151" height="151" viewBox="0 0 151 151" fill="none" xmlns="http://www.w3.org/2000/svg">
<path d="M150.5 75.3818C150.5 33.9605 116.921 0.381836 75.5 0.381836C34.0786 0.381836 0.5 33.9605 0.5 75.3818C0.5 116.803 34.0786 150.382 75.5 150.382C116.921 150.382 150.5 116.803 150.5 75.3818Z" fill="white"/>
<path d="M58.3578 48.4887L52.9921 62.9187C52.9321 63.0773 52.7092 63.0773 52.6492 62.9187L47.3092 48.493C47.1935 48.1802 46.8935 47.9702 46.5592 47.9702H42.5863C42.4278 47.9702 42.2992 48.0987 42.2992 48.2573V67.5087C42.2992 67.6673 42.4278 67.7959 42.5863 67.7959H45.4492C45.6078 67.7959 45.7363 67.6673 45.7363 67.5087V53.8759C45.7363 53.6702 46.0192 53.623 46.0921 53.8116L50.9692 67.2645C51.0849 67.5816 51.3849 67.7916 51.7235 67.7916H53.9821C54.3206 67.7916 54.6206 67.5773 54.7363 67.2602L59.562 53.8202C59.6306 53.6273 59.9178 53.6787 59.9178 53.8802V67.5045C59.9178 67.663 60.0463 67.7916 60.2049 67.7916H63.0378C63.1963 67.7916 63.3249 67.663 63.3249 67.5045V48.253C63.3249 48.0945 63.1963 47.9659 63.0378 47.9659H59.1163C58.7821 47.9659 58.4821 48.1759 58.3663 48.4887H58.3578Z" fill="#0078EF"/>
<path d="M103.743 48.4887L98.3769 62.9187C98.3169 63.0773 98.0941 63.0773 98.0341 62.9187L92.6941 48.493C92.5784 48.1802 92.2784 47.9702 91.9441 47.9702H87.9712C87.8127 47.9702 87.6841 48.0987 87.6841 48.2573V67.5087C87.6841 67.6673 87.8127 67.7959 87.9712 67.7959H90.8341C90.9927 67.7959 91.1212 67.6673 91.1212 67.5087V53.8759C91.1212 53.6702 91.4041 53.623 91.4769 53.8116L96.3541 67.2645C96.4698 67.5816 96.7698 67.7916 97.1084 67.7916H99.3669C99.7055 67.7916 100.006 67.5773 100.121 67.2602L104.947 53.8202C105.016 53.6273 105.303 53.6787 105.303 53.8802V67.5045C105.303 67.663 105.431 67.7916 105.59 67.7916H108.423C108.581 67.7916 108.71 67.663 108.71 67.5045V48.253C108.71 48.0945 108.581 47.9659 108.423 47.9659H104.501C104.167 47.9659 103.867 48.1759 103.751 48.4887H103.743Z" fill="#0078EF"/>
<path d="M105.276 81.326C105.251 90.1417 100.991 98.2245 95.7235 102.939C95.5607 103.085 95.2992 102.935 95.3592 102.72C95.7449 101.285 95.6678 99.2874 95.6678 99.2874C95.6678 93.6431 91.1764 88.8902 85.6521 88.6931C82.8749 88.5945 80.2349 89.576 78.2035 91.4617C76.0349 93.4803 74.8821 96.3645 74.8821 99.326V104.666C74.8821 105.382 74.8135 106.05 74.6892 106.663C74.1921 109.08 71.8092 110.627 69.3835 110.173C55.9821 107.362 45.8678 95.5117 45.7349 81.3217C45.7349 81.1631 45.6064 81.0388 45.4521 81.0388H42.5978C42.4392 81.0388 42.3064 81.1717 42.3106 81.3303C42.4692 99.5017 57.2978 114.24 75.5078 114.24C93.7178 114.24 108.551 99.506 108.705 81.3303C108.705 81.1717 108.576 81.0388 108.418 81.0388H105.564C105.405 81.0388 105.281 81.1674 105.281 81.3217L105.276 81.326ZM92.2435 99.2917V101.272C92.2435 103.492 91.2535 105.592 89.5435 107.002L89.4021 107.117C88.8492 107.576 88.2364 107.953 87.5807 108.249C87.0835 108.472 86.5778 108.682 86.0678 108.875C85.9049 108.935 85.7592 108.763 85.8364 108.609C86.5821 107.113 86.9935 105.437 86.9935 103.689V92.9274C86.9935 92.6317 87.2892 92.4217 87.5635 92.5245C90.2721 93.5102 92.2435 96.2017 92.2435 99.2917ZM78.3107 106.012V99.2488C78.3107 97.5217 78.8806 95.8202 80.0164 94.5174C80.8435 93.5702 81.8635 92.8931 82.9949 92.5031C83.2735 92.4088 83.5607 92.6145 83.5607 92.906V103.689C83.5607 106.689 82.0349 109.38 79.6607 110.323C78.0107 110.979 76.3692 110.979 75.5249 110.919C75.3535 110.906 75.3064 110.683 75.4564 110.597C76.8749 109.826 78.3107 108.36 78.3107 106.012Z" fill="#0078EF"/>
</svg>
