<svg width="325" height="28" viewBox="0 0 325 28" fill="none" xmlns="http://www.w3.org/2000/svg">
<path d="M30.4609 0V28H24.8646V7.91146L18.2109 28H12.3958L5.63281 7.91146V28H0V0H7.91146L15.2214 20.763L22.6224 0H30.4609Z" fill="black"/>
<path d="M52.3549 22.3307H40.196L38.0632 28H31.9747L43.2039 0H49.5294L60.7585 28H54.67L52.3549 22.3307ZM50.7507 17.4635L46.394 5.70573L41.8367 17.4635H50.7507Z" fill="black"/>
<path d="M78.952 28L67.978 15.4948V28H62.3452V0H67.978V12.4323L77.4207 0H83.8921L73.7749 13.7083L86.3166 28H78.952Z" fill="black"/>
<path d="M105.95 22.3307H93.7912L91.6584 28H85.5699L96.7991 0H103.125L114.354 28H108.265L105.95 22.3307ZM104.346 17.4635L99.9892 5.70573L95.4319 17.4635H104.346Z" fill="black"/>
<path d="M141.625 0V28H135.883L121.573 8.51302V28H115.94V0H121.683L136.029 19.4505V0H141.625Z" fill="black"/>
<path d="M194.109 0L186.379 28H180.254L173.346 9.33333L167.184 28H161.096L152.582 0H158.671L164.359 21.8385L170.593 0H176.153L183.098 21.875L188.056 0H194.109Z" fill="black"/>
<path d="M219.976 0V28H214.344V16.4609H202.312V28H196.68V0H202.312V11.5026H214.344V0H219.976Z" fill="black"/>
<path d="M229.347 4.88542V11.5391H240.594V16.4609H229.347V23.0781H242.162V28H223.714V0H242.162V4.88542H229.347Z" fill="black"/>
<path d="M268.085 28H261.759L255.27 17.6276H251.387V28H245.754V0H258.441C260.702 0 262.646 0.923611 264.275 2.77083C265.915 4.6059 266.736 6.72049 266.736 9.11458C266.736 10.9861 266.183 12.7057 265.077 14.2734C263.971 15.829 262.579 16.8194 260.902 17.2448L268.085 28ZM258.223 13.2526C259.195 13.2526 260.003 12.8698 260.647 12.1042C261.291 11.3264 261.613 10.3177 261.613 9.07812C261.613 7.88715 261.291 6.89062 260.647 6.08854C260.003 5.28646 259.195 4.88542 258.223 4.88542H251.387V13.2526H258.223Z" fill="black"/>
<path d="M276.453 4.88542V11.5391H287.7V16.4609H276.453V23.0781H289.268V28H270.82V0H289.268V4.88542H276.453Z" fill="black"/>
<path d="M325 14C325 6.26801 318.732 0 311 0C303.268 0 297 6.26801 297 14C297 21.732 303.268 28 311 28C318.732 28 325 21.732 325 14Z" fill="#0078EF"/>
<path d="M307.8 8.97999L306.798 11.6736C306.787 11.7032 306.746 11.7032 306.734 11.6736L305.738 8.98079C305.716 8.92239 305.66 8.88319 305.598 8.88319H304.856C304.826 8.88319 304.802 8.90719 304.802 8.93679V12.5304C304.802 12.56 304.826 12.584 304.856 12.584H305.39C305.42 12.584 305.444 12.56 305.444 12.5304V9.98559C305.444 9.94719 305.497 9.93839 305.51 9.97359L306.421 12.4848C306.442 12.544 306.498 12.5832 306.562 12.5832H306.983C307.046 12.5832 307.102 12.5432 307.124 12.484L308.025 9.97519C308.038 9.93919 308.091 9.94879 308.091 9.98639V12.5296C308.091 12.5592 308.115 12.5832 308.145 12.5832H308.674C308.703 12.5832 308.727 12.5592 308.727 12.5296V8.93599C308.727 8.90639 308.703 8.88239 308.674 8.88239H307.942C307.879 8.88239 307.823 8.92159 307.802 8.97999H307.8Z" fill="white"/>
<path d="M316.272 8.97999L315.27 11.6736C315.259 11.7032 315.218 11.7032 315.206 11.6736L314.21 8.98079C314.188 8.92239 314.132 8.88319 314.07 8.88319H313.328C313.298 8.88319 313.274 8.90719 313.274 8.93679V12.5304C313.274 12.56 313.298 12.584 313.328 12.584H313.862C313.892 12.584 313.916 12.56 313.916 12.5304V9.98559C313.916 9.94719 313.969 9.93839 313.982 9.97359L314.893 12.4848C314.914 12.544 314.97 12.5832 315.034 12.5832H315.455C315.518 12.5832 315.574 12.5432 315.596 12.484L316.497 9.97519C316.51 9.93919 316.563 9.94879 316.563 9.98639V12.5296C316.563 12.5592 316.587 12.5832 316.617 12.5832H317.146C317.175 12.5832 317.199 12.5592 317.199 12.5296V8.93599C317.199 8.90639 317.175 8.88239 317.146 8.88239H316.414C316.351 8.88239 316.295 8.92159 316.274 8.97999H316.272Z" fill="white"/>
<path d="M316.558 15.1096C316.554 16.7552 315.758 18.264 314.775 19.144C314.745 19.1712 314.696 19.1432 314.707 19.1032C314.779 18.8352 314.765 18.4624 314.765 18.4624C314.765 17.4088 313.926 16.5216 312.895 16.4848C312.377 16.4664 311.884 16.6496 311.505 17.0016C311.1 17.3784 310.885 17.9168 310.885 18.4696V19.4664C310.885 19.6 310.872 19.7248 310.849 19.8392C310.756 20.2904 310.311 20.5792 309.858 20.4944C307.357 19.9696 305.469 17.7576 305.444 15.1088C305.444 15.0792 305.42 15.056 305.391 15.056H304.858C304.829 15.056 304.804 15.0808 304.805 15.1104C304.834 18.5024 307.602 21.2536 311.002 21.2536C314.401 21.2536 317.17 18.5032 317.198 15.1104C317.198 15.0808 317.174 15.056 317.145 15.056H316.612C316.582 15.056 316.559 15.08 316.559 15.1088L316.558 15.1096ZM314.126 18.4632V18.8328C314.126 19.2472 313.941 19.6392 313.622 19.9024L313.595 19.924C313.492 20.0096 313.378 20.08 313.255 20.1352C313.162 20.1768 313.068 20.216 312.973 20.252C312.942 20.2632 312.915 20.2312 312.93 20.2024C313.069 19.9232 313.146 19.6104 313.146 19.284V17.2752C313.146 17.22 313.201 17.1808 313.252 17.2C313.758 17.384 314.126 17.8864 314.126 18.4632ZM311.525 19.7176V18.4552C311.525 18.1328 311.631 17.8152 311.843 17.572C311.998 17.3952 312.188 17.2688 312.399 17.196C312.451 17.1784 312.505 17.2168 312.505 17.2712V19.284C312.505 19.844 312.22 20.3464 311.777 20.5224C311.469 20.6448 311.162 20.6448 311.005 20.6336C310.973 20.6312 310.964 20.5896 310.992 20.5736C311.257 20.4296 311.525 20.156 311.525 19.7176Z" fill="white"/>
</svg>
