<svg width="313" height="132" viewBox="0 0 313 132" fill="none" xmlns="http://www.w3.org/2000/svg">
<path d="M67.8704 0V61.5H55.5784V17.377L40.9641 61.5H28.1917L13.3372 17.377V61.5H0.965088V0H18.342L34.3977 45.6045L50.6536 0H67.8704Z" fill="black"/>
<path d="M115.959 49.0479H89.2528L84.5683 61.5H71.1952L95.8593 0H109.753L134.417 61.5H121.044L115.959 49.0479ZM112.435 38.3574L102.866 12.5322L92.8563 38.3574H112.435Z" fill="black"/>
<path d="M174.377 61.5L150.274 34.0332V61.5H137.902V0H150.274V27.3066L171.014 0H185.228L163.006 30.1094L190.553 61.5H174.377Z" fill="black"/>
<path d="M233.677 49.0479H206.971L202.286 61.5H188.913L213.577 0H227.471L252.135 61.5H238.762L233.677 49.0479ZM230.153 38.3574L220.584 12.5322L210.574 38.3574H230.153Z" fill="black"/>
<path d="M312.035 0V61.5H299.423L267.992 18.6982V61.5H255.62V0H268.232L299.743 42.7217V0H312.035Z" fill="black"/>
<path d="M96.4583 70L79.4817 131.5H66.0286L50.8538 90.5L37.3206 131.5H23.9475L5.24927 70H18.6223L31.1145 117.967L44.8079 70H57.0198L72.2747 118.047L83.1653 70H96.4583Z" fill="black"/>
<path d="M153.275 70V131.5H140.903V106.155H114.477V131.5H102.105V70H114.477V95.2646H140.903V70H153.275Z" fill="black"/>
<path d="M173.857 80.7305V95.3447H198.561V106.155H173.857V120.689H202.004V131.5H161.485V70H202.004V80.7305H173.857Z" fill="black"/>
<path d="M258.942 131.5H245.048L230.794 108.718H222.266V131.5H209.894V70H237.761C242.726 70 246.997 72.0286 250.573 76.0859C254.177 80.1165 255.979 84.7611 255.979 90.0195C255.979 94.1302 254.764 97.9072 252.335 101.351C249.906 104.767 246.85 106.943 243.166 107.877L258.942 131.5ZM237.28 99.1084C239.416 99.1084 241.191 98.2676 242.606 96.5859C244.02 94.8776 244.728 92.6621 244.728 89.9395C244.728 87.3236 244.02 85.1348 242.606 83.373C241.191 81.6113 239.416 80.7305 237.28 80.7305H222.266V99.1084H237.28Z" fill="black"/>
<path d="M277.321 80.7305V95.3447H302.025V106.155H277.321V120.689H305.469V131.5H264.949V70H305.469V80.7305H277.321Z" fill="black"/>
</svg>
